{"title":"Justice.League.Doom.2012.BRRip.XviD.AC3-SOLAPiSOKA","uid":7038541,"size":2114179975,"categoryP":"video","categoryS":"movies","magnet":"?xt=urn:btih:6051ee4d99e0b77391c2e5850f379b22508b6797&amp;dn=Justice.League.Doom.2012.BRRip.XviD.AC3-SOLAPiSOKA&amp;tr=udp%3A%2F%2Ftracker.openbittorrent.com%3A80&amp;tr=udp%3A%2F%2Fopen.demonii.com%3A1337&amp;tr=udp%3A%2F%2Ftracker.coppersurfer.tk%3A6969&amp;tr=udp%3A%2F%2Fexodus.desync.com%3A6969","seeders":2,"leechers":0,"uploader":"TvTeam","files":6,"time":1329468859,"description":". \n &lt;a href=&quot;\nhttp://www.torrenting.com&quot; rel=&quot;nofollow&quot; target=&quot;_NEW&quot;&gt;\nhttp://www.torrenting.com&lt;/a&gt;          :     Once &amp; For all ;)\n\n\n               www . Torrenting . Com \n\n(((((((((((((= Enjoy No RAR releases =))))))))))))))))))))\n\n\n...................................NFO:....................................\n\n.[pre][IMG]http://i.imgur.com/R5z58.png[/IMG]\n\n*******************************************************************************\n               Justice.League.Doom.2012.BRRip.XviD.AC3-SOLAPiSOKA\n*******************************************************************************\n\n\n[color=red]General Information:[/color]\n\nComplete name                            : Justice.League.Doom.2012.BRRip.XviD.AC3-SOLAPiSOKA\nFormat                                   : AVI\nFormat/Info                              : Audio Video Interleave\nFile size                                : 1.94 GiB\nDuration                                 : 1h 16mn\nOverall bit rate                         : 3 610 Kbps\nLanguage                                 : English\nSubs                                     : N/A\nSource                                   : 720p-HDChina Many THANKS\nEncoder                                  : akosipalos\n\n[color=lime]iMDB:[/color] http://www.imdb.com/title/tt2027128/\n\n[color=red]Video[/color]\n\nID                                       : 0\nFormat                                   : MPEG-4 Visual\nFormat profile                           : Advanced Simple@L5\nFormat settings, BVOP                    : 2\nFormat settings, QPel                    : No\nFormat settings, GMC                     : No warppoints\nFormat settings, Matrix                  : Default (H.263)\nCodec ID                                 : XVID\nCodec ID/Hint                            : XviD\nDuration                                 : 1h 16mn\nBit rate                                 : 3 154 Kbps\nWidth                                    : 720 pixels\nHeight                                   : 400 pixels\nDisplay aspect ratio                     : 16:9\nFrame rate                               : 23.976 fps\nColor space                              : YUV\nChroma subsampling                       : 4:2:0\nBit depth                                : 8 bits\nScan type                                : Progressive\nCompression mode                         : Lossy\nBits/(Pixel*Frame)                       : 0.457\nStream size                              : 1.69 GiB (87%)\nWriting library                          : XviD 1.2.1 (UTC 2008-12-04)\n\n[color=red]Audio[/color]\n\nID                                       : 1\nFormat                                   : AC-3\nFormat/Info                              : Audio Coding 3\nMode extension                           : CM (complete main)\nCodec ID                                 : 2000\nDuration                                 : 1h 16mn\nBit rate mode                            : Constant\nBit rate                                 : 448 Kbps\nChannel(s)                               : 6 channels\nChannel positions                        : Front: L C R, Side: L R, LFE\nSampling rate                            : 48.0 KHz\nBit depth                                : 16 bits\nCompression mode                         : Lossy\nStream size                              : 246 MiB (12%)\nAlignment                                : Aligned on interleaves\nInterleave, duration                     : 64 ms (1.53 video frames)\nInterleave, preload duration             : 192 ms\n\n\n[color=red]Plot:[/color]\n\nAn adaptation of Mark Waid's &quot;Tower of Babel&quot; story from the JLA comic. Ra's al Ghul steals confidential \nfiles Batman has compiled on the members of the Justice League, and learns all their weaknesses. \n\n\n[color=red]Screens:[/color]\n\n[IMG]http://i.imgur.com/7ynnz.jpg[/IMG]\n[IMG]http://i.imgur.com/7gVW9.jpg[/IMG]\n[IMG]http://i.imgur.com/aOIhq.jpg[/IMG]\n[IMG]http://i.imgur.com/64xr0.jpg[/IMG]\n[IMG]http://i.imgur.com/tLCt6.jpg[/IMG]\n\n\n[center][b][color=red]GREETZ:[/color][/b]\n\nTwisted | Bigguy | CTFX | Whitestag13 | THoRN | SANTi | PA4U2C | Jungledave | mtyy\n| marsby | cld | Stortrapp | rizal | mannilim | Rock | Ulap | centserick2 | Galactica |\nmusikera | Tukmol | rock3r | canislupus | sickie | fun2knytz | lilyrose | Dreamer\n RiZAL Team Release | TRiNiTY | LEGi0N | LEGiTiMATE | HiVE-CM8 | BHRG | DTRG \n  CrEwSaDe | Rx | LKRG | THC | aTLas | SiC\n  [/center]\n\n","torrent":{"xt":"urn:btih:6051ee4d99e0b77391c2e5850f379b22508b6797","amp;dn":"Justice.League.Doom.2012.BRRip.XviD.AC3-SOLAPiSOKA","amp;tr":["udp%3A%2F%2Ftracker.openbittorrent.com%3A80","udp%3A%2F%2Fopen.demonii.com%3A1337","udp%3A%2F%2Ftracker.coppersurfer.tk%3A6969","udp%3A%2F%2Fexodus.desync.com%3A6969"],"infoHash":"6051ee4d99e0b77391c2e5850f379b22508b6797","infoHashBuffer":{"type":"Buffer","data":[96,81,238,77,153,224,183,115,145,194,229,133,15,55,155,34,80,139,103,151]},"announce":[],"urlList":[]}}